# This file uses centimeters as units for non-parametric coordinates.

mtllib zq.mtl
g default
v 0.000000 0.000000 -0.240960
v 0.000000 0.087143 -0.219921
v 0.000000 0.157220 -0.183088
v 0.000000 0.201611 -0.132903
v 0.000000 0.227250 -0.070642
v 0.000000 0.241953 0.000000
v 0.155177 0.077545 -0.161446
v 0.200377 0.117609 -0.067902
v 0.200377 0.000000 -0.135803
v 0.156069 0.000000 -0.180036
v 0.200377 0.067902 -0.117609
v 0.097250 0.000000 -0.216045
v 0.199795 0.135461 0.000000
v 0.183010 0.157220 0.000000
v 0.158492 0.157220 -0.091583
v 0.094241 0.084561 -0.196093
v 0.129966 0.201611 0.000000
v 0.113891 0.201611 -0.066515
v 0.091505 0.157220 -0.158570
v 0.063019 0.201611 -0.115008
v 0.226042 0.000000 -0.077696
v 0.240974 0.000000 0.000000
v 0.228721 0.067571 0.000000
v 0.224131 0.055721 -0.059336
v 0.048476 0.227250 -0.052176
v 0.073037 0.227250 0.000000
v 0.000000 -0.087143 -0.219921
v 0.000000 -0.157220 -0.183088
v 0.000000 -0.201611 -0.132903
v 0.000000 -0.227250 -0.070642
v 0.000000 -0.241953 0.000000
v 0.155177 -0.077545 -0.161446
v 0.200377 -0.117609 -0.067902
v 0.200377 -0.067902 -0.117609
v 0.199795 -0.135461 0.000000
v 0.183010 -0.157220 0.000000
v 0.158492 -0.157220 -0.091583
v 0.094241 -0.084561 -0.196093
v 0.129966 -0.201611 0.000000
v 0.113891 -0.201611 -0.066515
v 0.091505 -0.157220 -0.158570
v 0.063019 -0.201611 -0.115008
v 0.228721 -0.067571 0.000000
v 0.224131 -0.055721 -0.059336
v 0.048476 -0.227250 -0.052176
v 0.073037 -0.227250 0.000000
v 0.000000 0.000000 0.240960
v 0.000000 -0.087143 0.219922
v 0.000000 -0.157220 0.183088
v 0.000000 -0.201611 0.132903
v 0.000000 -0.227250 0.070642
v 0.155177 -0.077545 0.161447
v 0.200377 -0.117609 0.067901
v 0.200377 0.000000 0.135803
v 0.156069 0.000000 0.180036
v 0.200377 -0.067902 0.117609
v 0.097250 0.000000 0.216045
v 0.158492 -0.157220 0.091583
v 0.094241 -0.084561 0.196093
v 0.113891 -0.201611 0.066516
v 0.091505 -0.157220 0.158569
v 0.063019 -0.201611 0.115008
v 0.226042 0.000000 0.077695
v 0.224131 -0.055721 0.059336
v 0.048476 -0.227250 0.052176
v 0.000000 0.087143 0.219922
v 0.000000 0.157220 0.183088
v 0.000000 0.201611 0.132903
v 0.000000 0.227250 0.070642
v 0.155177 0.077545 0.161447
v 0.200377 0.117609 0.067901
v 0.200377 0.067902 0.117609
v 0.158492 0.157220 0.091583
v 0.094241 0.084561 0.196093
v 0.113891 0.201611 0.066516
v 0.091505 0.157220 0.158569
v 0.063019 0.201611 0.115008
v 0.224131 0.055721 0.059336
v 0.048476 0.227250 0.052176
v -0.155177 0.077545 -0.161446
v -0.200377 0.117609 -0.067902
v -0.200377 0.000000 -0.135803
v -0.156069 0.000000 -0.180036
v -0.200377 0.067902 -0.117609
v -0.097250 0.000000 -0.216045
v -0.199795 0.135461 0.000000
v -0.183010 0.157220 0.000000
v -0.158492 0.157220 -0.091583
v -0.094241 0.084561 -0.196093
v -0.129966 0.201611 0.000000
v -0.113891 0.201611 -0.066515
v -0.091505 0.157220 -0.158570
v -0.063019 0.201611 -0.115008
v -0.226042 0.000000 -0.077696
v -0.240974 0.000000 0.000000
v -0.228721 0.067571 0.000000
v -0.224131 0.055721 -0.059336
v -0.048476 0.227250 -0.052176
v -0.073037 0.227250 0.000000
v -0.155177 -0.077545 -0.161446
v -0.200377 -0.117609 -0.067902
v -0.200377 -0.067902 -0.117609
v -0.199795 -0.135461 0.000000
v -0.183010 -0.157220 0.000000
v -0.158492 -0.157220 -0.091583
v -0.094241 -0.084561 -0.196093
v -0.129966 -0.201611 0.000000
v -0.113891 -0.201611 -0.066515
v -0.091505 -0.157220 -0.158570
v -0.063019 -0.201611 -0.115008
v -0.228721 -0.067571 0.000000
v -0.224131 -0.055721 -0.059336
v -0.048476 -0.227250 -0.052176
v -0.073037 -0.227250 0.000000
v -0.155177 -0.077545 0.161447
v -0.200377 -0.117609 0.067901
v -0.200377 0.000000 0.135803
v -0.156069 0.000000 0.180036
v -0.200377 -0.067902 0.117609
v -0.097250 0.000000 0.216045
v -0.158492 -0.157220 0.091583
v -0.094241 -0.084561 0.196093
v -0.113891 -0.201611 0.066516
v -0.091505 -0.157220 0.158569
v -0.063019 -0.201611 0.115008
v -0.226042 0.000000 0.077695
v -0.224131 -0.055721 0.059336
v -0.048476 -0.227250 0.052176
v -0.155177 0.077545 0.161447
v -0.200377 0.117609 0.067901
v -0.200377 0.067902 0.117609
v -0.158492 0.157220 0.091583
v -0.094241 0.084561 0.196093
v -0.113891 0.201611 0.066516
v -0.091505 0.157220 0.158569
v -0.063019 0.201611 0.115008
v -0.224131 0.055721 0.059336
v -0.048476 0.227250 0.052176
vt 0.937825 0.300166
vt 0.864942 0.490390
vt 0.939206 0.028712
vt 0.930758 0.650889
vt 0.812445 0.695156
vt 0.949629 0.300166
vt 0.950293 0.028712
vt 0.932276 0.732968
vt 0.919154 0.650889
vt 0.943467 0.650889
vt 0.942403 0.732968
vt 0.928335 0.827902
vt 0.937501 0.827902
vt 0.966931 0.300166
vt 0.962675 0.586959
vt 0.951728 0.732968
vt 0.945562 0.827902
vt 0.663041 0.846168
vt 0.458296 0.688761
vt 0.630791 0.654417
vt 0.682141 0.491805
vt 0.456840 0.493551
vt 0.915481 0.535065
vt 0.966259 0.028712
vt 0.937049 0.917372
vt 0.922630 0.732968
vt 0.946992 0.586959
vt 0.954965 0.650889
vt 0.931294 0.586959
vt 0.916695 0.586959
vt 0.459774 0.900957
vt 0.923370 0.470143
vt 0.926641 0.300166
vt 0.929143 0.028712
vt 0.937825 0.300166
vt 0.929143 0.028712
vt 0.939206 0.028712
vt 0.931294 0.586959
vt 0.926641 0.300166
vt 0.949629 0.300166
vt 0.950293 0.028712
vt 0.932276 0.732968
vt 0.919154 0.650889
vt 0.930758 0.650889
vt 0.943467 0.650889
vt 0.942403 0.732968
vt 0.946992 0.586959
vt 0.928335 0.827902
vt 0.937501 0.827902
vt 0.966931 0.300166
vt 0.962675 0.586959
vt 0.954965 0.650889
vt 0.951728 0.732968
vt 0.945562 0.827902
vt 0.657553 0.137781
vt 0.455272 0.298342
vt 0.628279 0.330008
vt 0.809280 0.286461
vt 0.916695 0.586959
vt 0.915481 0.535065
vt 0.966259 0.028712
vt 0.937049 0.917372
vt 0.923370 0.470143
vt 0.922630 0.732968
vt 0.453462 0.086148
vt 0.937825 0.300166
vt 0.929143 0.028712
vt 0.939206 0.028712
vt 0.931294 0.586959
vt 0.926641 0.300166
vt 0.949629 0.300166
vt 0.950293 0.028712
vt 0.932276 0.732968
vt 0.919154 0.650889
vt 0.930758 0.650889
vt 0.943467 0.650889
vt 0.942403 0.732968
vt 0.946992 0.586959
vt 0.928335 0.827902
vt 0.937501 0.827902
vt 0.966931 0.300166
vt 0.962675 0.586959
vt 0.954965 0.650889
vt 0.951728 0.732968
vt 0.945562 0.827902
vt 0.250308 0.141110
vt 0.282801 0.332757
vt 0.231517 0.495296
vt 0.101113 0.292119
vt 0.916695 0.586959
vt 0.915481 0.535065
vt 0.966259 0.028712
vt 0.937049 0.917372
vt 0.923370 0.470143
vt 0.922630 0.732968
vt 0.048698 0.496712
vt 0.937825 0.300166
vt 0.929143 0.028712
vt 0.939206 0.028712
vt 0.931294 0.586959
vt 0.926641 0.300166
vt 0.949629 0.300166
vt 0.950293 0.028712
vt 0.932276 0.732968
vt 0.919154 0.650889
vt 0.930758 0.650889
vt 0.943467 0.650889
vt 0.942403 0.732968
vt 0.946992 0.586959
vt 0.928335 0.827902
vt 0.937501 0.827902
vt 0.966931 0.300166
vt 0.962675 0.586959
vt 0.954965 0.650889
vt 0.951728 0.732968
vt 0.945562 0.827902
vt 0.255793 0.849148
vt 0.285313 0.657021
vt 0.104277 0.700469
vt 0.916695 0.586959
vt 0.915481 0.535065
vt 0.966259 0.028712
vt 0.937049 0.917372
vt 0.923370 0.470143
vt 0.922630 0.732968
vt 0.937825 0.300166
vt 0.929143 0.028712
vt 0.939206 0.028712
vt 0.931294 0.586959
vt 0.926641 0.300166
vt 0.949629 0.300166
vt 0.950293 0.028712
vt 0.932276 0.732968
vt 0.919154 0.650889
vt 0.930758 0.650889
vt 0.943467 0.650889
vt 0.942403 0.732968
vt 0.946992 0.586959
vt 0.928335 0.827902
vt 0.937501 0.827902
vt 0.966931 0.300166
vt 0.962675 0.586959
vt 0.954965 0.650889
vt 0.951728 0.732968
vt 0.945562 0.827902
vt 0.663041 0.846168
vt 0.458296 0.688761
vt 0.630791 0.654417
vt 0.682141 0.491805
vt 0.812445 0.695156
vt 0.456840 0.493551
vt 0.916695 0.586959
vt 0.915481 0.535065
vt 0.966259 0.028712
vt 0.937049 0.917372
vt 0.923370 0.470143
vt 0.922630 0.732968
vt 0.864942 0.490390
vt 0.459774 0.900957
vt 0.937825 0.300166
vt 0.939206 0.028712
vt 0.929143 0.028712
vt 0.931294 0.586959
vt 0.926641 0.300166
vt 0.949629 0.300166
vt 0.950293 0.028712
vt 0.932276 0.732968
vt 0.930758 0.650889
vt 0.919154 0.650889
vt 0.942403 0.732968
vt 0.943467 0.650889
vt 0.946992 0.586959
vt 0.928335 0.827902
vt 0.937501 0.827902
vt 0.966931 0.300166
vt 0.962675 0.586959
vt 0.954965 0.650889
vt 0.951728 0.732968
vt 0.945562 0.827902
vt 0.657553 0.137781
vt 0.628279 0.330008
vt 0.455272 0.298342
vt 0.809280 0.286461
vt 0.916695 0.586959
vt 0.915481 0.535065
vt 0.966259 0.028712
vt 0.937049 0.917372
vt 0.923370 0.470143
vt 0.922630 0.732968
vt 0.453462 0.086148
vt 0.937825 0.300166
vt 0.929143 0.028712
vt 0.939206 0.028712
vt 0.931294 0.586959
vt 0.926641 0.300166
vt 0.949629 0.300166
vt 0.950293 0.028712
vt 0.932276 0.732968
vt 0.919154 0.650889
vt 0.930758 0.650889
vt 0.943467 0.650889
vt 0.942403 0.732968
vt 0.946992 0.586959
vt 0.928335 0.827902
vt 0.937501 0.827902
vt 0.966931 0.300166
vt 0.962675 0.586959
vt 0.954965 0.650889
vt 0.951728 0.732968
vt 0.945562 0.827902
vt 0.250308 0.141110
vt 0.282801 0.332757
vt 0.231517 0.495296
vt 0.101113 0.292119
vt 0.916695 0.586959
vt 0.915481 0.535065
vt 0.966259 0.028712
vt 0.937049 0.917372
vt 0.923370 0.470143
vt 0.922630 0.732968
vt 0.048698 0.496712
vt 0.937825 0.300166
vt 0.939206 0.028712
vt 0.929143 0.028712
vt 0.931294 0.586959
vt 0.926641 0.300166
vt 0.949629 0.300166
vt 0.950293 0.028712
vt 0.932276 0.732968
vt 0.930758 0.650889
vt 0.919154 0.650889
vt 0.942403 0.732968
vt 0.943467 0.650889
vt 0.946992 0.586959
vt 0.928335 0.827902
vt 0.937501 0.827902
vt 0.966931 0.300166
vt 0.962675 0.586959
vt 0.954965 0.650889
vt 0.951728 0.732968
vt 0.945562 0.827902
vt 0.255793 0.849148
vt 0.285313 0.657021
vt 0.104277 0.700469
vt 0.916695 0.586959
vt 0.915481 0.535065
vt 0.966259 0.028712
vt 0.937049 0.917372
vt 0.923370 0.470143
vt 0.922630 0.732968
vn 0.606226 0.359926 -0.709185
vn 0.807778 -0.000000 -0.589487
vn 0.600994 -0.000000 -0.799254
vn 0.634983 0.642468 -0.428988
vn 0.793062 0.310449 -0.524094
vn 0.346975 0.332214 -0.877065
vn 0.359711 0.000000 -0.933064
vn 0.489431 0.827543 -0.275010
vn 0.705348 0.708862 0.000000
vn 0.402590 0.596876 -0.694017
vn 0.287103 0.830461 -0.477396
vn 0.311301 0.950311 0.000000
vn 0.212066 0.951555 -0.222644
vn 0.000001 0.341422 -0.939910
vn 0.000000 0.588123 -0.808771
vn -0.000000 0.825674 -0.564147
vn -0.000000 0.951380 -0.308021
vn 0.829986 0.489544 -0.267338
vn 0.956836 0.290629 0.000000
vn 0.950426 0.218255 -0.221485
vn 0.953932 0.000000 -0.300023
vn 1.000000 0.000000 0.000000
vn 0.859180 0.511674 -0.000000
vn 0.000000 0.000000 -1.000000
vn 0.000000 1.000000 0.000000
vn 0.551758 0.834005 0.000001
vn 0.606224 -0.359926 -0.709186
vn 0.634983 -0.642468 -0.428988
vn 0.793062 -0.310449 -0.524094
vn 0.346973 -0.332214 -0.877065
vn 0.489430 -0.827543 -0.275012
vn 0.705347 -0.708862 -0.000000
vn 0.287102 -0.830460 -0.477397
vn 0.402591 -0.596877 -0.694017
vn 0.311301 -0.950311 -0.000000
vn 0.212065 -0.951555 -0.222644
vn -0.000000 -0.341421 -0.939911
vn -0.000000 -0.588124 -0.808771
vn -0.000000 -0.825675 -0.564146
vn 0.000000 -0.951379 -0.308022
vn 0.829986 -0.489544 -0.267338
vn 0.950426 -0.218256 -0.221484
vn 0.956836 -0.290629 0.000000
vn 0.859181 -0.511672 0.000000
vn 0.000000 -1.000000 -0.000000
vn 0.551757 -0.834005 -0.000000
vn 0.606222 -0.359926 0.709188
vn 0.807779 -0.000000 0.589485
vn 0.600991 0.000000 0.799256
vn 0.634986 -0.642466 0.428988
vn 0.793064 -0.310448 0.524091
vn 0.346970 -0.332216 0.877066
vn 0.359715 0.000000 0.933062
vn 0.489430 -0.827543 0.275011
vn 0.402588 -0.596878 0.694017
vn 0.287099 -0.830459 0.477401
vn 0.212065 -0.951555 0.222644
vn 0.000001 -0.341422 0.939910
vn 0.000001 -0.588127 0.808769
vn 0.000000 -0.825674 0.564147
vn 0.000000 -0.951379 0.308022
vn 0.829988 -0.489542 0.267336
vn 0.950425 -0.218257 0.221486
vn 0.953932 0.000000 0.300023
vn 0.000000 0.000000 1.000000
vn 0.606223 0.359926 0.709187
vn 0.634986 0.642465 0.428989
vn 0.793065 0.310448 0.524090
vn 0.346969 0.332216 0.877066
vn 0.489430 0.827543 0.275010
vn 0.287101 0.830459 0.477400
vn 0.402590 0.596877 0.694017
vn 0.212066 0.951555 0.222645
vn 0.000000 0.341423 0.939910
vn 0.000000 0.588126 0.808769
vn 0.000000 0.825673 0.564149
vn 0.000000 0.951379 0.308022
vn 0.829988 0.489542 0.267336
vn 0.950425 0.218257 0.221487
vn -0.606226 0.359926 -0.709185
vn -0.600993 0.000000 -0.799254
vn -0.807778 0.000000 -0.589487
vn -0.634983 0.642468 -0.428989
vn -0.793062 0.310449 -0.524094
vn -0.346974 0.332214 -0.877065
vn -0.359711 0.000000 -0.933064
vn -0.489431 0.827543 -0.275010
vn -0.705347 0.708862 -0.000000
vn -0.287103 0.830461 -0.477396
vn -0.402590 0.596876 -0.694018
vn -0.311301 0.950311 -0.000000
vn -0.212066 0.951555 -0.222644
vn -0.829986 0.489544 -0.267338
vn -0.950425 0.218256 -0.221486
vn -0.956836 0.290629 -0.000000
vn -0.953932 0.000000 -0.300023
vn -1.000000 0.000000 -0.000000
vn -0.859180 0.511673 -0.000000
vn -0.551757 0.834005 -0.000001
vn -0.606225 -0.359926 -0.709186
vn -0.634983 -0.642469 -0.428988
vn -0.793061 -0.310449 -0.524094
vn -0.346973 -0.332214 -0.877065
vn -0.489430 -0.827543 -0.275011
vn -0.705347 -0.708862 0.000000
vn -0.402591 -0.596877 -0.694017
vn -0.287102 -0.830461 -0.477397
vn -0.311301 -0.950311 0.000000
vn -0.212065 -0.951556 -0.222644
vn -0.829986 -0.489544 -0.267338
vn -0.956836 -0.290629 -0.000000
vn -0.950426 -0.218255 -0.221485
vn -0.859180 -0.511673 -0.000000
vn -0.551757 -0.834005 0.000000
vn -0.606222 -0.359926 0.709188
vn -0.600991 -0.000000 0.799256
vn -0.807779 0.000000 0.589485
vn -0.634985 -0.642466 0.428988
vn -0.793065 -0.310447 0.524090
vn -0.346970 -0.332216 0.877066
vn -0.359714 0.000000 0.933063
vn -0.489430 -0.827543 0.275012
vn -0.287100 -0.830459 0.477401
vn -0.402589 -0.596878 0.694017
vn -0.212066 -0.951555 0.222645
vn -0.829988 -0.489542 0.267335
vn -0.950425 -0.218257 0.221486
vn -0.953932 -0.000000 0.300022
vn -0.606222 0.359927 0.709188
vn -0.634986 0.642466 0.428988
vn -0.793064 0.310448 0.524091
vn -0.346967 0.332217 0.877067
vn -0.489430 0.827543 0.275010
vn -0.402589 0.596877 0.694017
vn -0.287101 0.830459 0.477400
vn -0.212066 0.951555 0.222645
vn -0.829988 0.489542 0.267336
vn -0.950425 0.218256 0.221486
s 1
g polySurface92
usemtl pasted__lambert2SG
f 7/1/1 9/34/2 10/3/3
f 15/29/4 11/33/5 7/1/1
f 16/6/6 10/3/3 12/7/7
f 18/8/8 14/9/9 15/4/4
f 15/4/4 19/10/10 20/11/11
f 19/27/10 7/1/1 16/6/6
f 26/12/12 18/8/8 25/13/13
f 18/8/8 20/11/11 25/13/13
f 2/14/14 3/15/15 16/6/6
f 3/28/15 4/16/16 19/10/10
f 20/11/11 4/16/16 5/17/17
f 8/18/18 23/19/19 24/20/20
f 21/21/21 11/5/5 24/20/20
f 22/22/22 21/21/21 24/20/20
f 24/20/20 11/5/5 8/18/18
f 14/30/9 13/23/23 15/29/4
f 2/14/14 12/7/7 1/24/24
f 6/25/25 26/12/12 25/13/13
f 19/27/10 15/29/4 7/1/1
f 8/32/18 11/33/5 15/29/4
f 15/29/4 13/23/23 8/32/18
f 16/6/6 3/15/15 19/27/10
f 20/11/11 5/17/17 25/13/13
f 26/12/12 17/26/26 18/8/8
f 6/25/25 25/13/13 5/17/17
f 22/22/22 24/20/20 23/19/19
f 9/2/2 11/5/5 21/21/21
f 8/18/18 13/31/23 23/19/19
f 7/1/1 11/33/5 9/34/2
f 7/1/1 10/3/3 16/6/6
f 2/14/14 16/6/6 12/7/7
f 19/10/10 4/16/16 20/11/11
f 15/4/4 20/11/11 18/8/8
f 17/26/26 14/9/9 18/8/8
f 32/35/27 10/37/3 9/36/2
f 37/38/28 32/35/27 34/39/29
f 38/40/30 12/41/7 10/37/3
f 40/42/31 37/44/28 36/43/32
f 37/44/28 42/46/33 41/45/34
f 41/47/34 38/40/30 32/35/27
f 46/48/35 45/49/36 40/42/31
f 40/42/31 45/49/36 42/46/33
f 27/50/37 38/40/30 28/51/38
f 28/52/38 41/45/34 29/53/39
f 42/46/33 30/54/40 29/53/39
f 33/55/41 44/57/42 43/56/43
f 21/21/21 44/57/42 34/58/29
f 22/22/22 44/57/42 21/21/21
f 44/57/42 33/55/41 34/58/29
f 36/59/32 37/38/28 35/60/44
f 27/50/37 1/61/24 12/41/7
f 31/62/45 45/49/36 46/48/35
f 41/47/34 32/35/27 37/38/28
f 33/63/41 37/38/28 34/39/29
f 37/38/28 33/63/41 35/60/44
f 38/40/30 41/47/34 28/51/38
f 42/46/33 45/49/36 30/54/40
f 46/48/35 40/42/31 39/64/46
f 31/62/45 30/54/40 45/49/36
f 22/22/22 43/56/43 44/57/42
f 9/2/2 21/21/21 34/58/29
f 33/55/41 43/56/43 35/65/44
f 32/35/27 9/36/2 34/39/29
f 32/35/27 38/40/30 10/37/3
f 27/50/37 12/41/7 38/40/30
f 41/45/34 42/46/33 29/53/39
f 37/44/28 40/42/31 42/46/33
f 39/64/46 40/42/31 36/43/32
f 52/66/47 54/67/48 55/68/49
f 58/69/50 56/70/51 52/66/47
f 59/71/52 55/68/49 57/72/53
f 60/73/54 36/74/32 58/75/50
f 58/75/50 61/76/55 62/77/56
f 61/78/55 52/66/47 59/71/52
f 46/79/35 60/73/54 65/80/57
f 60/73/54 62/77/56 65/80/57
f 48/81/58 49/82/59 59/71/52
f 49/83/59 50/84/60 61/76/55
f 62/77/56 50/84/60 51/85/61
f 53/86/62 43/56/43 64/87/63
f 63/88/64 56/89/51 64/87/63
f 22/22/22 63/88/64 64/87/63
f 64/87/63 56/89/51 53/86/62
f 36/90/32 35/91/44 58/69/50
f 48/81/58 57/72/53 47/92/65
f 31/93/45 46/79/35 65/80/57
f 61/78/55 58/69/50 52/66/47
f 53/94/62 56/70/51 58/69/50
f 58/69/50 35/91/44 53/94/62
f 59/71/52 49/82/59 61/78/55
f 62/77/56 51/85/61 65/80/57
f 46/79/35 39/95/46 60/73/54
f 31/93/45 65/80/57 51/85/61
f 22/22/22 64/87/63 43/56/43
f 54/96/48 56/89/51 63/88/64
f 53/86/62 35/65/44 43/56/43
f 52/66/47 56/70/51 54/67/48
f 52/66/47 55/68/49 59/71/52
f 48/81/58 59/71/52 57/72/53
f 61/76/55 50/84/60 62/77/56
f 58/75/50 62/77/56 60/73/54
f 39/95/46 36/74/32 60/73/54
f 70/97/66 55/99/49 54/98/48
f 73/100/67 70/97/66 72/101/68
f 74/102/69 57/103/53 55/99/49
f 75/104/70 73/106/67 14/105/9
f 73/106/67 77/108/71 76/107/72
f 76/109/72 74/102/69 70/97/66
f 26/110/12 79/111/73 75/104/70
f 75/104/70 79/111/73 77/108/71
f 66/112/74 74/102/69 67/113/75
f 67/114/75 76/107/72 68/115/76
f 77/108/71 69/116/77 68/115/76
f 71/117/78 78/118/79 23/19/19
f 63/88/64 78/118/79 72/119/68
f 22/22/22 78/118/79 63/88/64
f 78/118/79 71/117/78 72/119/68
f 14/120/9 73/100/67 13/121/23
f 66/112/74 47/122/65 57/103/53
f 6/123/25 79/111/73 26/110/12
f 76/109/72 70/97/66 73/100/67
f 71/124/78 73/100/67 72/101/68
f 73/100/67 71/124/78 13/121/23
f 74/102/69 76/109/72 67/113/75
f 77/108/71 79/111/73 69/116/77
f 26/110/12 75/104/70 17/125/26
f 6/123/25 69/116/77 79/111/73
f 22/22/22 23/19/19 78/118/79
f 54/96/48 63/88/64 72/119/68
f 71/117/78 23/19/19 13/31/23
f 70/97/66 54/98/48 72/101/68
f 70/97/66 74/102/69 55/99/49
f 66/112/74 57/103/53 74/102/69
f 76/107/72 77/108/71 68/115/76
f 73/106/67 75/104/70 77/108/71
f 17/125/26 75/104/70 14/105/9
f 80/126/80 83/128/81 82/127/82
f 88/129/83 80/126/80 84/130/84
f 89/131/85 85/132/86 83/128/81
f 91/133/87 88/135/83 87/134/88
f 88/135/83 93/137/89 92/136/90
f 92/138/90 89/131/85 80/126/80
f 99/139/91 98/140/92 91/133/87
f 91/133/87 98/140/92 93/137/89
f 2/141/14 89/131/85 3/142/15
f 3/143/15 92/136/90 4/144/16
f 93/137/89 5/145/17 4/144/16
f 81/146/93 97/148/94 96/147/95
f 94/149/96 97/148/94 84/150/84
f 95/151/97 97/148/94 94/149/96
f 97/148/94 81/146/93 84/150/84
f 87/152/88 88/129/83 86/153/98
f 2/141/14 1/154/24 85/132/86
f 6/155/25 98/140/92 99/139/91
f 92/138/90 80/126/80 88/129/83
f 81/156/93 88/129/83 84/130/84
f 88/129/83 81/156/93 86/153/98
f 89/131/85 92/138/90 3/142/15
f 93/137/89 98/140/92 5/145/17
f 99/139/91 91/133/87 90/157/99
f 6/155/25 5/145/17 98/140/92
f 95/151/97 96/147/95 97/148/94
f 82/158/82 94/149/96 84/150/84
f 81/146/93 96/147/95 86/159/98
f 80/126/80 82/127/82 84/130/84
f 80/126/80 89/131/85 83/128/81
f 2/141/14 85/132/86 89/131/85
f 92/136/90 93/137/89 4/144/16
f 88/135/83 91/133/87 93/137/89
f 90/157/99 91/133/87 87/134/88
f 100/160/100 82/162/82 83/161/81
f 105/163/101 102/164/102 100/160/100
f 106/165/103 83/161/81 85/166/86
f 108/167/104 104/169/105 105/168/101
f 105/168/101 109/171/106 110/170/107
f 109/172/106 100/160/100 106/165/103
f 114/173/108 108/167/104 113/174/109
f 108/167/104 110/170/107 113/174/109
f 27/175/37 28/176/38 106/165/103
f 28/177/38 29/178/39 109/171/106
f 110/170/107 29/178/39 30/179/40
f 101/180/110 111/182/111 112/181/112
f 94/149/96 102/183/102 112/181/112
f 95/151/97 94/149/96 112/181/112
f 112/181/112 102/183/102 101/180/110
f 104/184/105 103/185/113 105/163/101
f 27/175/37 85/166/86 1/186/24
f 31/187/45 114/173/108 113/174/109
f 109/172/106 105/163/101 100/160/100
f 101/188/110 102/164/102 105/163/101
f 105/163/101 103/185/113 101/188/110
f 106/165/103 28/176/38 109/172/106
f 110/170/107 30/179/40 113/174/109
f 114/173/108 107/189/114 108/167/104
f 31/187/45 113/174/109 30/179/40
f 95/151/97 112/181/112 111/182/111
f 82/158/82 102/183/102 94/149/96
f 101/180/110 103/190/113 111/182/111
f 100/160/100 102/164/102 82/162/82
f 100/160/100 83/161/81 106/165/103
f 27/175/37 106/165/103 85/166/86
f 109/171/106 29/178/39 110/170/107
f 105/168/101 110/170/107 108/167/104
f 107/189/114 104/169/105 108/167/104
f 115/191/115 118/193/116 117/192/117
f 121/194/118 115/191/115 119/195/119
f 122/196/120 120/197/121 118/193/116
f 123/198/122 121/200/118 104/199/105
f 121/200/118 125/202/123 124/201/124
f 124/203/124 122/196/120 115/191/115
f 114/204/108 128/205/125 123/198/122
f 123/198/122 128/205/125 125/202/123
f 48/206/58 122/196/120 49/207/59
f 49/208/59 124/201/124 50/209/60
f 125/202/123 51/210/61 50/209/60
f 116/211/126 127/212/127 111/182/111
f 126/213/128 127/212/127 119/214/119
f 95/151/97 127/212/127 126/213/128
f 127/212/127 116/211/126 119/214/119
f 104/215/105 121/194/118 103/216/113
f 48/206/58 47/217/65 120/197/121
f 31/218/45 128/205/125 114/204/108
f 124/203/124 115/191/115 121/194/118
f 116/219/126 121/194/118 119/195/119
f 121/194/118 116/219/126 103/216/113
f 122/196/120 124/203/124 49/207/59
f 125/202/123 128/205/125 51/210/61
f 114/204/108 123/198/122 107/220/114
f 31/218/45 51/210/61 128/205/125
f 95/151/97 111/182/111 127/212/127
f 117/221/117 126/213/128 119/214/119
f 116/211/126 111/182/111 103/190/113
f 115/191/115 117/192/117 119/195/119
f 115/191/115 122/196/120 118/193/116
f 48/206/58 120/197/121 122/196/120
f 124/201/124 125/202/123 50/209/60
f 121/200/118 123/198/122 125/202/123
f 107/220/114 123/198/122 104/199/105
f 129/222/129 117/224/117 118/223/116
f 132/225/130 131/226/131 129/222/129
f 133/227/132 118/223/116 120/228/121
f 134/229/133 87/231/88 132/230/130
f 132/230/130 135/233/134 136/232/135
f 135/234/134 129/222/129 133/227/132
f 99/235/91 134/229/133 138/236/136
f 134/229/133 136/232/135 138/236/136
f 66/237/74 67/238/75 133/227/132
f 67/239/75 68/240/76 135/233/134
f 136/232/135 68/240/76 69/241/77
f 130/242/137 96/147/95 137/243/138
f 126/213/128 131/244/131 137/243/138
f 95/151/97 126/213/128 137/243/138
f 137/243/138 131/244/131 130/242/137
f 87/245/88 86/246/98 132/225/130
f 66/237/74 120/228/121 47/247/65
f 6/248/25 99/235/91 138/236/136
f 135/234/134 132/225/130 129/222/129
f 130/249/137 131/226/131 132/225/130
f 132/225/130 86/246/98 130/249/137
f 133/227/132 67/238/75 135/234/134
f 136/232/135 69/241/77 138/236/136
f 99/235/91 90/250/99 134/229/133
f 6/248/25 138/236/136 69/241/77
f 95/151/97 137/243/138 96/147/95
f 117/221/117 131/244/131 126/213/128
f 130/242/137 86/159/98 96/147/95
f 129/222/129 131/226/131 117/224/117
f 129/222/129 118/223/116 133/227/132
f 66/237/74 133/227/132 120/228/121
f 135/233/134 68/240/76 136/232/135
f 132/230/130 136/232/135 134/229/133
f 90/250/99 87/231/88 134/229/133
